<svg xmlns="http://www.w3.org/2000/svg" viewBox="0 0 63.89 63.89">
  <defs>
    <style>
      .mediaIcon__svg {
        fill: #fff;
      }
    </style>
  </defs>
  <title>FB_icon</title>
  <g id="FB_icon">
    <path id="FB_shape" class="mediaIcon__svg"
      d="M48.69,0,14.94.14A15,15,0,0,0,0,15.2L.14,49A15,15,0,0,0,15.2,63.89l19.05-.08-.1-24.69-8.31,0,0-9.62,8.31,0,0-7.09c0-8.24,5-12.74,12.33-12.77a67.29,67.29,0,0,1,7.42.35l0,8.61-5.1,0c-4,0-4.76,1.92-4.74,4.7l0,6.14,9.53,0-1.2,9.62-8.29,0,.1,24.68,4.76,0A15,15,0,0,0,63.89,48.69l-.14-33.75A15,15,0,0,0,48.69,0Z" />
  </g>
</svg>