<svg xmlns="http://www.w3.org/2000/svg" viewBox="0 0 64 64">
  <defs>
    <style>
      .mediaIcon__svg {
        fill: #fff;
      }
    </style>
  </defs>
  <title>GITHUB_icon</title>
  <g id="GITHUB_icon">
    <path id="GITHUB_shape" class="mediaIcon__svg"
      d="M49,0H15A15,15,0,0,0,0,15V50.67A13.33,13.33,0,0,0,13.33,64H49A15,15,0,0,0,64,49V15A15,15,0,0,0,49,0ZM38.76,52.24c-1.08.21-1.43-.46-1.43-1V45.36a5.11,5.11,0,0,0-1.46-4c4.75-.52,9.74-2.33,9.74-10.52a8.27,8.27,0,0,0-2.19-5.73,7.72,7.72,0,0,0-.21-5.64s-1.79-.58-5.87,2.18a20.16,20.16,0,0,0-10.68,0c-4.08-2.76-5.87-2.19-5.87-2.19a7.66,7.66,0,0,0-.2,5.65,8.22,8.22,0,0,0-2.2,5.73c0,8.17,5,10,9.72,10.54a4.57,4.57,0,0,0-1.36,2.85c-1.21.55-4.3,1.49-6.2-1.77a4.49,4.49,0,0,0-3.28-2.2s-2.08,0-.14,1.3a5.61,5.61,0,0,1,2.37,3.12s1.23,3.8,7.17,2.51v4c0,.57-.35,1.23-1.41,1a21.32,21.32,0,1,1,13.5,0Z" />
  </g>
</svg>