<svg xmlns="http://www.w3.org/2000/svg" viewBox="0 0 64 64">
  <defs>
    <style>
      .mediaIcon__svg {
        fill: #fff;
      }
    </style>
  </defs>
  <title>LINKEDIN_icon</title>
  <g id="LINKEDIN_icon">
    <path id="LINKEDIN_shape" class="mediaIcon__svg"
      d="M49,0H15A15,15,0,0,0,0,15V49A15,15,0,0,0,15,64H49A15,15,0,0,0,64,49V15A15,15,0,0,0,49,0ZM21.33,50.67h-8V21.33h8ZM17.33,18A4.71,4.71,0,1,1,22,13.25,4.68,4.68,0,0,1,17.33,18Zm36,32.72h-8v-15c0-9-10.66-8.3-10.66,0v15h-8V21.33h8V26c3.72-6.9,18.66-7.41,18.66,6.6Z" />
  </g>
</svg>