<svg xmlns="http://www.w3.org/2000/svg" viewBox="0 0 63 63">
  <defs>
    <style>
      .mediaIcon__svg {
        fill: #fff;
      }
    </style>
  </defs>
  <title>MAIL_icon</title>
  <g id="GMAIL_icon">
    <path id="MAIL_icon" class="mediaIcon__svg"
      d="M36.75,31.5a5.25,5.25,0,1,1-5.25-5.25A5.25,5.25,0,0,1,36.75,31.5ZM63,14.58V48.42A14.58,14.58,0,0,1,48.42,63H14.58A14.58,14.58,0,0,1,0,48.42V14.58A14.58,14.58,0,0,1,14.58,0H48.42A14.58,14.58,0,0,1,63,14.58ZM52.5,31.5A21,21,0,1,0,42,49.69l-2.62-4.55A15.75,15.75,0,1,1,47.25,31.5v2.29a2.71,2.71,0,0,1-2.62,3A2.63,2.63,0,0,1,42,34.12V23.63H38.37A10.38,10.38,0,0,0,31.5,21a10.5,10.5,0,1,0,7.13,18.17,7.83,7.83,0,0,0,6,2.83,8,8,0,0,0,7.87-8.21Z" />
  </g>
</svg>