<svg xmlns="http://www.w3.org/2000/svg" viewBox="0 0 96.25 160"><defs><style>.cls-1{fill:#ffffff;}</style></defs><title>why_me</title><path id="why_me" class="cls-1" d="M39.64,104.22v-1.45A69.85,69.85,0,0,1,41.6,86a63.86,63.86,0,0,1,5.9-15.21c.69-1.31,1.87-3.24,3.52-5.8q9.42-15,9.42-27.94,0-10.66-6.26-17.18T37.77,13.35A22.93,22.93,0,0,0,25.2,17.08q-5.85,3.72-5.85,6.62,0,1.25,3.83,2.69c1.45.55,2.55,1,3.31,1.35a18,18,0,0,1,8.23,6.31,17.26,17.26,0,0,1,2.64,9.83q0,8.17-4.81,12.89t-13.2,4.7a17.69,17.69,0,0,1-13.92-6.2Q0,49.06,0,39,0,21.93,13.45,11T47.92,0Q69.24,0,82.74,10.66T96.25,37.88a33.6,33.6,0,0,1-1.81,11,31.51,31.51,0,0,1-5.33,9.57Q84.45,63.86,74,70.58q-3.52,2.28-5,3.31Q58.68,80.83,54.8,87.5t-4.3,16.72ZM26.8,140.75a18.39,18.39,0,0,1,5.64-13.56,18.66,18.66,0,0,1,13.61-5.59,18.33,18.33,0,0,1,13.56,5.54,19.61,19.61,0,0,1,0,27.27A18.27,18.27,0,0,1,46.05,160,19.17,19.17,0,0,1,26.8,140.75Z"/></svg>